# xmcd
#
# Track frame offsets:
#	150
#	12119
#	24592
#	37144
#	49333
#	62107
#	75742
#	89531
#	101907
#	111601
#	123780
#	136066
#	148472
#	161721
#	173708
#	186487
#	199492
#	212027
#	224656
#	237492
#	249916
#	261595
#	273709
#	285594
#	296678
#	309750
#
# Disc length: 4308 seconds
#
# Revision: 2
# Processed by: cddbd v1.4PL0 Copyright (c) Steve Scherf et al.
# Submitted via: audiograbber 1.82.00
#
DISCID=a610d21a
DTITLE=As good as it gets - Hillbilly - CD 2
DYEAR=2000
DGENRE=Country
TTITLE0=Wayne Raney - Lost John Boogie
TTITLE1=Hank Penny - Won't You Ride In My Little Red Wagon
TTITLE2=Jimmie Rodgers - Travelling Blues
TTITLE3=Floyd Tillman - I Love You So Much It Hurts
TTITLE4=Gene Autry - Bear Cat Papa Blues
TTITLE5=The Carter Family - I'm Thinking Tonight Of My Blue Eyes
TTITLE6=Rex Griffin - The Last Letter
TTITLE7=Jimmie Rodgers - Waiting For A Train
TTITLE8=Jimmy Wakely and Arthur Smith - Orange Blossom Special
TTITLE9=Maddox Brothers and Rose - George's Playhouse Boogie
TTITLE10=The Delmore Brothers - Freight Train Boogie
TTITLE11=Roy Acuff - Wreck On The Highway
TTITLE12=Jimmy Work - Tennessee Border
TTITLE13=Sons Of The Pioneers - I Hang My Head And Cry
TTITLE14=Jimmie Davis - You Are My Sunshine
TTITLE15=Jimmie Rodgers - In The Jailhouse Now
TTITLE16=Wayne Raney - Jack and Jill Boogie
TTITLE17=Jimmie Skinner - You're My Big Baby Now
TTITLE18=Roy Acuff - Wabash Cannonball
TTITLE19=Gene Autry - Do Right Daddy Blues
TTITLE20=The Delmore Brothers - Browns Ferry Blues
TTITLE21=Ted Daffan - Born To Lose
TTITLE22=Jimmie Rodgers - T. For Texas - Blue Yodel No. 1
TTITLE23=Sons Of The Pioneers - When The Moon Comes Over Sun Valley
TTITLE24=Roy Acuff - Great Speckled Bird 2
TTITLE25=Jimmie Rodgers - Mule Skinner Blues - Blue Yodel No.8
EXTD=Disky - DO 250502
EXTT0=
EXTT1=
EXTT2=
EXTT3=
EXTT4=
EXTT5=
EXTT6=
EXTT7=
EXTT8=
EXTT9=
EXTT10=
EXTT11=
EXTT12=
EXTT13=
EXTT14=
EXTT15=
EXTT16=
EXTT17=
EXTT18=
EXTT19=
EXTT20=
EXTT21=
EXTT22=
EXTT23=
EXTT24=
EXTT25=
PLAYORDER=
